<svg width="21" height="19" viewBox="0 0 21 19" fill="none" xmlns="http://www.w3.org/2000/svg">
<path d="M0.610919 6.42787C0.674502 6.04637 0.711903 5.66113 0.809148 5.28711C1.32155 3.32725 2.46979 1.89476 4.42965 1.27763C6.52416 0.615619 8.34937 1.15047 9.8604 2.74379C10.0399 2.9308 10.197 3.13651 10.3728 3.34596C10.5449 3.14399 10.7019 2.94202 10.8777 2.75127C11.7118 1.85362 12.7067 1.22901 13.9372 1.07192C15.8372 0.828809 17.4642 1.40854 18.7134 2.87095C19.9627 4.33337 20.3292 6.06133 20.0412 7.93891C19.8579 9.12829 19.3156 10.1643 18.605 11.1181C17.6737 12.371 16.5366 13.4258 15.366 14.4468C13.9858 15.6474 12.5945 16.8406 11.2069 18.0337C10.672 18.4937 10.0998 18.5124 9.58737 18.0711C7.77712 16.5002 5.96313 14.9368 4.17532 13.3397C3.26645 12.5319 2.45483 11.6267 1.78534 10.6019C1.15699 9.63321 0.734345 8.5897 0.6371 7.43024C0.63336 7.38536 0.618398 7.34422 0.607178 7.30307C0.610918 7.01134 0.610919 6.7196 0.610919 6.42787ZM10.3691 17.237C10.4177 17.1996 10.4588 17.1697 10.4962 17.136C12.0409 15.8008 13.5931 14.4768 15.1228 13.1303C16.1925 12.1878 17.2099 11.1891 17.9991 9.99227C18.7546 8.85151 19.1248 7.60977 18.9528 6.23338C18.7658 4.74853 18.13 3.518 16.8134 2.74379C15.5866 2.02193 14.2888 1.93216 12.9872 2.56052C12.2167 2.93079 11.6482 3.53297 11.1695 4.23238C11.1021 4.33337 11.0386 4.43809 10.9675 4.53534C10.6533 4.96546 10.0923 4.96172 9.77438 4.53908C9.49761 4.1688 9.24327 3.77608 8.92535 3.43946C7.90428 2.35855 6.6401 1.93965 5.18517 2.25382C3.61429 2.59418 2.582 3.58907 2.06211 5.08514C1.4562 6.82433 1.7442 8.46253 2.74657 9.98853C3.36744 10.9348 4.13044 11.7651 4.96824 12.5169C6.35211 13.7624 7.7659 14.9779 9.16473 16.201C9.56493 16.5488 9.96513 16.8892 10.3691 17.237Z" fill="black" stroke="black" stroke-width="0.5" stroke-miterlimit="10"/>
</svg>
