<svg width="17" height="19" viewBox="0 0 17 19" fill="none" xmlns="http://www.w3.org/2000/svg">
<path d="M12.1678 9.37421C13.2035 9.96312 13.9955 10.7714 14.5966 11.7746C15.2383 12.8508 15.6242 14.0206 15.7988 15.2512C15.9125 16.0554 15.9491 16.8717 15.9978 17.684C16.0263 18.143 15.7623 18.3907 15.2993 18.3907C10.7991 18.3907 6.29899 18.3907 1.79886 18.3907C1.32772 18.3907 1.07997 18.147 1.08403 17.6718C1.09622 16.0351 1.30335 14.4348 1.92476 12.9077C2.52586 11.4334 3.44782 10.2271 4.84498 9.41482C4.86528 9.40264 4.88559 9.38233 4.9059 9.36609C2.8386 7.18913 3.30161 3.86276 5.34048 2.16506C7.27781 0.544524 10.1127 0.621692 11.9526 2.35189C13.8331 4.11864 14.1417 7.22162 12.1678 9.37421ZM14.7428 17.1438C14.6657 15.5071 14.4098 13.9271 13.5853 12.4934C13.0329 11.5309 12.2694 10.7917 11.2581 10.3084C11.1362 10.2474 11.0469 10.2515 10.925 10.3165C9.32886 11.1613 7.72863 11.1491 6.13653 10.3043C6.03499 10.2515 5.95376 10.2393 5.85223 10.2921C5.06023 10.6698 4.39821 11.2059 3.87834 11.9126C3.1229 12.9361 2.72488 14.1018 2.52586 15.3446C2.43245 15.9335 2.38371 16.5346 2.3106 17.1438C6.47363 17.1438 10.596 17.1438 14.7428 17.1438ZM12.2694 5.97068C12.2694 3.91556 10.6001 2.23817 8.54499 2.23817C6.48988 2.23817 4.81248 3.90744 4.81248 5.96255C4.81248 8.01767 6.48176 9.69507 8.53687 9.69507C10.592 9.69913 12.2694 8.02579 12.2694 5.97068Z" fill="black" stroke="black" stroke-width="0.5" stroke-miterlimit="10"/>
</svg>
