<svg width="19" height="19" viewBox="0 0 19 19" fill="none" xmlns="http://www.w3.org/2000/svg">
<path d="M12.9473 13.958C11.0766 15.409 8.98176 15.9184 6.67495 15.409C4.90612 15.0218 3.47965 14.0681 2.41184 12.6049C0.202844 9.58082 0.626715 5.43998 3.39814 2.88048C6.031 0.447328 10.2371 0.373967 12.9881 2.66855C15.9429 5.1343 16.5869 9.69901 13.9785 12.931C14.0274 12.984 14.0804 13.041 14.1334 13.094C15.3357 14.2963 16.542 15.4986 17.7403 16.7091C17.8626 16.8314 17.9604 17.0025 18.0011 17.1696C18.0745 17.4835 17.9074 17.7728 17.6343 17.9155C17.3531 18.0622 17.0311 18.0174 16.7907 17.7851C16.4361 17.4386 16.0897 17.0881 15.7432 16.7376C14.8547 15.8532 13.9703 14.9647 13.0818 14.0803C13.0411 14.0396 12.9963 14.0029 12.9473 13.958ZM8.31743 2.41993C5.09768 2.41178 2.45667 5.04056 2.44037 8.27662C2.42407 11.5086 5.061 14.1618 8.29705 14.17C11.5209 14.1781 14.17 11.5493 14.1863 8.32552C14.2026 5.07725 11.5698 2.42808 8.31743 2.41993Z" fill="black" stroke="black" stroke-width="0.5" stroke-miterlimit="10"/>
</svg>
