<svg width="19" height="15" viewBox="0 0 19 15" fill="none" xmlns="http://www.w3.org/2000/svg">
<path d="M18.1925 1.72C17.7025 2.45 17.0825 3.1 16.3625 3.62C16.3725 3.77 16.3725 3.93 16.3725 4.09C16.3725 8.94 12.6825 14.53 5.9425 14.53C3.8725 14.53 1.9425 13.92 0.3125 12.88C0.6025 12.91 0.8925 12.93 1.1925 12.93C2.9125 12.93 4.4925 12.34 5.7425 11.36C4.97784 11.3442 4.23722 11.0899 3.62408 10.6328C3.01093 10.1756 2.55589 9.53834 2.3225 8.81C2.5425 8.85 2.7725 8.88 3.0125 8.88C3.3425 8.88 3.6725 8.83 3.9725 8.75C3.1431 8.57974 2.39778 8.12869 1.86222 7.4729C1.32666 6.8171 1.03361 5.99669 1.0325 5.15V5.11C1.5325 5.38 2.0925 5.55 2.6925 5.57C2.1903 5.23314 1.77886 4.7777 1.49456 4.24399C1.21026 3.71027 1.06186 3.11471 1.0625 2.51C1.0625 1.84 1.2425 1.21 1.5625 0.67C3.3725 2.89 6.0725 4.35 9.1225 4.5C9.0625 4.23 9.0225 3.95 9.0225 3.66C9.02515 2.68839 9.41297 1.75748 10.1009 1.07138C10.7889 0.385283 11.7209 -3.60686e-06 12.6925 0C13.7525 0 14.7025 0.44 15.3725 1.16C16.2025 0.99 16.9925 0.69 17.7025 0.27C17.4225 1.12 16.8425 1.84 16.0825 2.29C16.8111 2.21036 17.5229 2.01807 18.1925 1.72Z" fill="white"/>
</svg>
